<svg width="229" height="16" viewBox="0 0 229 16" fill="none" xmlns="http://www.w3.org/2000/svg">
<path d="M80.0204 7.08551C78.5503 7.10282 77.0804 7.12169 75.6101 7.14217C72.3737 7.18722 69.0429 7.31365 65.6708 7.44166C56.3216 7.79655 46.6553 8.16348 37.8033 6.84132L80.0204 7.08551ZM80.0204 7.08551C79.9874 7.11439 79.956 7.14484 79.9264 7.17686C79.8353 7.27531 79.7589 7.39245 79.7086 7.52232C72.4525 7.66846 65.1958 7.86115 57.9402 8.10159C47.2425 8.45637 36.4677 8.9857 25.7846 9.75974C25.544 9.77717 25.3074 9.79431 25.0746 9.81117C15.0954 10.5339 12.0983 10.7509 3.18876 11.9352C3.1 11.947 2.97319 11.9545 2.81502 11.9637C2.78229 11.9657 2.7482 11.9677 2.71284 11.9698C2.52859 11.9809 2.30169 11.9961 2.1275 12.0306C2.12746 12.0306 2.12742 12.0306 2.12738 12.0306L80.0204 7.08551ZM0.897054 12.9496L0.897066 12.9496C0.978876 12.6945 1.14853 12.4885 1.37641 12.3312L0.897054 12.9496ZM0.897054 12.9496L0.895987 12.953M0.897054 12.9496L0.895987 12.953M0.895987 12.953C0.854785 13.0847 0.830307 13.2494 0.865569 13.4339C0.901047 13.6194 0.99056 13.7911 1.12592 13.9457L1.12678 13.9467M0.895987 12.953L1.12678 13.9467M1.12678 13.9467C1.78021 14.6887 2.81963 14.8152 3.8832 14.6839L3.88325 14.6839M1.12678 13.9467L3.88325 14.6839M3.88325 14.6839C4.30333 14.6319 4.76153 14.5251 5.18767 14.4257C5.238 14.4139 5.28787 14.4023 5.33719 14.3909C5.82261 14.2784 6.25619 14.1853 6.62068 14.1643M3.88325 14.6839L219.095 12.4355M219.095 12.4355C219.189 12.6625 219.364 12.8364 219.551 12.9512C219.819 13.1163 220.155 13.1939 220.497 13.1769C220.603 13.1716 220.875 13.1623 221.251 13.1494C221.799 13.1306 222.568 13.1043 223.362 13.072C224.668 13.0189 226.081 12.9488 226.551 12.8662C227.168 12.7577 227.477 12.4808 227.618 12.2949L227.619 12.2933C227.749 12.1202 227.881 11.8626 227.838 11.5524C227.793 11.2344 227.584 10.9993 227.334 10.8317L227.328 10.8279C227.21 10.7512 227.014 10.6449 226.685 10.5824C226.424 10.5315 225.842 10.4789 224.854 10.4353C219.192 10.1822 213.53 9.90351 207.867 9.62478C197.57 9.118 187.269 8.611 176.949 8.25668L176.932 8.74991L176.949 8.25668C176.824 8.25241 176.699 8.24815 176.574 8.2439C179.286 8.18825 181.998 8.12979 184.712 8.06778C185.161 8.0584 185.413 8.0066 185.506 7.9788L185.507 7.97855C185.85 7.87547 186.106 7.71088 186.268 7.48253C186.43 7.25323 186.451 7.0231 186.449 6.88223C186.449 6.88178 186.449 6.88132 186.449 6.88087L185.956 6.88852M219.095 12.4355L185.164 5.79274L185.125 6.28473M219.095 12.4355C215.28 12.2555 211.467 12.0678 207.654 11.8802C197.355 11.3732 187.061 10.8665 176.741 10.513C154.819 9.76117 132.841 9.39176 110.833 9.43637C89.8772 9.89253 68.9189 10.5421 47.8734 11.7313C40.4162 12.1527 32.9654 12.5996 25.5135 13.0466C19.2181 13.4242 12.922 13.8019 6.62068 14.1643M185.956 6.88852C185.956 6.82989 185.907 6.34636 185.125 6.28473M185.956 6.88852C185.958 7.05278 185.907 7.34305 185.365 7.50587M185.956 6.88852L185.365 7.50587M185.125 6.28473C184.841 6.26228 183.462 6.23424 182.151 6.20756C181.344 6.19116 180.563 6.17528 180.078 6.16153L180.092 5.6682C180.092 5.6682 180.092 5.66821 180.092 5.66821C180.558 5.68141 181.317 5.69689 182.111 5.71306C183.441 5.74018 184.866 5.76924 185.163 5.79273L185.125 6.28473ZM167.827 5.87358L167.839 5.38019C154.948 5.0828 142.069 4.91117 129.16 4.79276C136.512 4.57984 143.838 4.47673 151.04 4.37539C153.22 4.3447 155.389 4.31418 157.544 4.28081C165.515 4.15752 173.484 4.06827 181.446 4.0743C183.542 4.07593 185.633 4.09172 187.726 4.10752C189.197 4.11862 190.669 4.12974 192.144 4.13595L192.146 3.64243L192.144 4.13595C192.779 4.13857 193.407 4.147 194.038 4.15545C194.509 4.16177 194.982 4.16811 195.461 4.17206L195.461 4.17207C195.594 4.17307 197.318 4.1689 197.607 4.16223C198.085 4.15125 198.426 3.99561 198.655 3.80478C198.874 3.62229 198.965 3.43016 198.99 3.36955C198.99 3.36887 198.99 3.3682 198.99 3.36756L198.533 3.18135L167.827 5.87358ZM167.827 5.87358C154.046 5.55564 140.277 5.38146 126.47 5.26237C123.71 5.23864 120.949 5.21942 118.189 5.20496L167.827 5.87358ZM185.365 7.50587C185.327 7.51722 185.121 7.56562 184.702 7.57438C178.752 7.71031 172.809 7.82917 166.87 7.93871L185.365 7.50587ZM6.62068 14.1643L6.59235 13.6716M6.62068 14.1643L6.59235 13.6716M6.59235 13.6716C6.13659 13.6978 5.60701 13.8212 5.07688 13.9447C4.64608 14.0451 4.21491 14.1456 3.82271 14.1941L207.682 11.3874C197.382 10.8804 187.081 10.3734 176.758 10.0197C154.829 9.26768 132.843 8.89816 110.827 8.94285C89.8669 9.39909 68.9007 10.0488 47.8456 11.2386C40.3897 11.6599 32.9358 12.107 25.4818 12.5541C19.1857 12.9318 12.8897 13.3094 6.59235 13.6716ZM36.5371 5.6338L36.5374 5.63052C36.5512 5.47258 36.6045 5.27765 36.7505 5.08977C36.8943 4.90484 37.1028 4.75896 37.3747 4.65337L36.5371 5.6338ZM36.5371 5.6338C36.5266 5.76457 36.5332 6.04362 36.7446 6.3154M36.5371 5.6338L36.7446 6.3154M36.7446 6.3154C36.956 6.58718 37.3063 6.76716 37.8032 6.8413L36.7446 6.3154ZM95.2848 6.96074C103.678 6.92154 112.069 6.93049 120.455 6.98274C117.268 7.0444 114.081 7.10931 110.894 7.17867C104.69 7.19117 98.4863 7.23666 92.2815 7.31584C93.2799 7.19191 94.2811 7.07364 95.2848 6.96074ZM87.0103 4.00264C94.3128 3.78809 101.62 3.61394 108.927 3.48181C104.308 3.79837 99.713 4.19682 95.1675 4.70376C88.6603 4.73449 82.1496 4.79419 75.6406 4.88477C72.3547 4.93048 68.9956 5.06062 65.6095 5.19181C61.5789 5.34797 57.5101 5.50561 53.4811 5.52407C54.3189 5.47833 55.1569 5.43423 55.9949 5.39042L56.4203 5.36818C66.6262 4.83462 76.8064 4.30241 87.0103 4.00264Z" fill="#3169E6" stroke="#3169E6" stroke-width="0.987049"/>
</svg>
