<svg width="25" height="24" viewBox="0 0 25 24" fill="none" xmlns="http://www.w3.org/2000/svg">
<path d="M9.57812 7.25391H19.2202" stroke="white" stroke-width="1.5" stroke-linecap="square"/>
<path fill-rule="evenodd" clip-rule="evenodd" d="M9.59339 7.19391C9.59339 5.75184 8.41565 4.58252 6.9632 4.58252C5.51075 4.58252 4.33301 5.75184 4.33301 7.19391C4.33301 8.63599 5.51075 9.80531 6.9632 9.80531C8.41565 9.80531 9.59339 8.63599 9.59339 7.19391Z" stroke="white" stroke-width="1.5" stroke-linecap="square"/>
<path d="M15.0879 16.8667H5.44585" stroke="white" stroke-width="1.5" stroke-linecap="square"/>
<path fill-rule="evenodd" clip-rule="evenodd" d="M15.0726 16.8062C15.0726 15.3641 16.2504 14.1948 17.7028 14.1948C19.1553 14.1948 20.333 15.3641 20.333 16.8062C20.333 18.2483 19.1553 19.4176 17.7028 19.4176C16.2504 19.4176 15.0726 18.2483 15.0726 16.8062Z" stroke="white" stroke-width="1.5" stroke-linecap="square"/>
</svg>
